<svg width="32" height="32" viewBox="0 0 32 32" fill="none" xmlns="http://www.w3.org/2000/svg">
<path d="M10.5 16C10.5 17.3807 9.38071 18.5 8 18.5C6.61929 18.5 5.5 17.3807 5.5 16C5.5 14.6193 6.61929 13.5 8 13.5C9.38071 13.5 10.5 14.6193 10.5 16Z" fill="#8F8F8F"/>
<path d="M18.5 16C18.5 17.3807 17.3807 18.5 16 18.5C14.6193 18.5 13.5 17.3807 13.5 16C13.5 14.6193 14.6193 13.5 16 13.5C17.3807 13.5 18.5 14.6193 18.5 16Z" fill="#8F8F8F"/>
<path d="M26.5 16C26.5 17.3807 25.3807 18.5 24 18.5C22.6193 18.5 21.5 17.3807 21.5 16C21.5 14.6193 22.6193 13.5 24 13.5C25.3807 13.5 26.5 14.6193 26.5 16Z" fill="#8F8F8F"/>
</svg>
