<svg width="28" height="28" viewBox="0 0 28 28" fill="none" xmlns="http://www.w3.org/2000/svg">
<rect x="7" y="1.75" width="21" height="24.5" rx="2" fill="#2FB776"/>
<path d="M7 20.125H28V24.25C28 25.3546 27.1046 26.25 26 26.25H9C7.89543 26.25 7 25.3546 7 24.25V20.125Z" fill="url(#paint0_linear_360_1228)"/>
<rect x="17.5" y="14" width="10.5" height="6.125" fill="#229C5B"/>
<rect x="17.5" y="7.875" width="10.5" height="6.125" fill="#27AE68"/>
<path d="M7 3.75C7 2.64543 7.89543 1.75 9 1.75H17.5V7.875H7V3.75Z" fill="#1D854F"/>
<rect x="7" y="7.875" width="10.5" height="6.125" fill="#197B43"/>
<rect x="7" y="14" width="10.5" height="6.125" fill="#1B5B38"/>
<path d="M7 10.875C7 9.21815 8.34315 7.875 10 7.875H14.5C16.1569 7.875 17.5 9.21815 17.5 10.875V20.625C17.5 22.2819 16.1569 23.625 14.5 23.625H7V10.875Z" fill="black" fill-opacity="0.3"/>
<rect y="6.125" width="15.75" height="15.75" rx="2" fill="url(#paint1_linear_360_1228)"/>
<path d="M11.375 18.375L8.90936 13.9125L11.2668 9.625H9.34235L7.88703 12.3625L6.45576 9.625H4.47122L6.84064 13.9125L4.375 18.375H6.2994L7.85095 15.475L9.39046 18.375H11.375Z" fill="white"/>
<defs>
<linearGradient id="paint0_linear_360_1228" x1="7" y1="23.1875" x2="28" y2="23.1875" gradientUnits="userSpaceOnUse">
<stop stop-color="#163C27"/>
<stop offset="1" stop-color="#2A6043"/>
</linearGradient>
<linearGradient id="paint1_linear_360_1228" x1="0" y1="14" x2="15.75" y2="14" gradientUnits="userSpaceOnUse">
<stop stop-color="#185A30"/>
<stop offset="1" stop-color="#176F3D"/>
</linearGradient>
</defs>
</svg>
