<svg width="28" height="28" viewBox="0 0 28 28" fill="none" xmlns="http://www.w3.org/2000/svg">
<path d="M1.75 10.6167C1.75 7.51304 1.75 5.96123 2.35401 4.7758C2.8853 3.73307 3.73307 2.8853 4.7758 2.35401C5.96123 1.75 7.51304 1.75 10.6167 1.75H17.3833C20.487 1.75 22.0388 1.75 23.2242 2.35401C24.2669 2.8853 25.1147 3.73307 25.646 4.7758C26.25 5.96123 26.25 7.51304 26.25 10.6167V17.3833C26.25 20.487 26.25 22.0388 25.646 23.2242C25.1147 24.2669 24.2669 25.1147 23.2242 25.646C22.0388 26.25 20.487 26.25 17.3833 26.25H10.6167C7.51304 26.25 5.96123 26.25 4.7758 25.646C3.73307 25.1147 2.8853 24.2669 2.35401 23.2242C1.75 22.0388 1.75 20.487 1.75 17.3833V10.6167Z" fill="#B30B00"/>
<path d="M21.0351 15.6604C19.8911 14.406 16.7738 14.9548 16.0207 15.0332C14.953 13.9356 14.1999 12.691 13.8948 12.2206C14.2761 11.0446 14.5812 9.7216 14.5812 8.4672C14.5812 7.2912 14.1236 6.125 12.9129 6.125C12.4553 6.125 12.074 6.3602 11.8452 6.7522C11.3114 7.693 11.5402 9.5648 12.3791 11.515C11.9215 12.9262 11.1588 15.0332 10.2532 16.6698C9.03296 17.1402 6.37323 18.3848 6.14443 19.796C6.06817 20.188 6.2207 20.6584 6.52576 20.8936C6.83082 21.2072 7.21214 21.2856 7.59346 21.2856C9.18549 21.2856 10.787 19.0218 11.931 16.9834C12.8462 16.6698 14.2857 16.1994 15.7347 15.9642C17.403 17.5322 18.9283 17.7576 19.6909 17.7576C20.7586 17.7576 21.14 17.2872 21.283 16.8952C21.4832 16.5228 21.3402 15.974 21.0351 15.6604ZM19.9674 16.4444C19.8911 16.758 19.5098 17.0716 18.8234 16.9148C17.9845 16.6796 17.2314 16.2876 16.6213 15.7388C17.1551 15.6604 18.4421 15.5036 19.3573 15.6604C19.6623 15.7388 20.0437 15.974 19.9674 16.4444ZM12.5888 7.0658C12.6651 6.909 12.8176 6.8306 12.9701 6.8306C13.3514 6.8306 13.4277 7.301 13.4277 7.693C13.3514 8.6338 13.1989 9.6432 12.8939 10.5056C12.2837 8.7906 12.36 7.5362 12.5888 7.0658ZM12.5125 15.8956C12.8939 15.19 13.3514 13.867 13.504 13.3966C13.8853 14.1022 14.5717 14.8862 14.8767 15.2684C14.953 15.1998 13.5802 15.5036 12.5125 15.8956ZM9.92907 17.6988C8.87089 19.4138 7.87945 20.5114 7.26934 20.5114C7.19307 20.5114 7.04054 20.5114 6.96428 20.433C6.88801 20.2762 6.81175 20.1194 6.88801 19.9626C6.96428 19.3354 8.18451 18.473 9.92907 17.6988Z" fill="white"/>
</svg>
