<svg width="28" height="28" viewBox="0 0 28 28" fill="none" xmlns="http://www.w3.org/2000/svg">
<rect x="7" y="1.75" width="21" height="24.5" rx="2" fill="url(#paint0_linear_360_1229)"/>
<path d="M7 20.125H28V24.25C28 25.3546 27.1046 26.25 26 26.25H9C7.89543 26.25 7 25.3546 7 24.25V20.125Z" fill="url(#paint1_linear_360_1229)"/>
<rect x="7" y="14" width="21" height="6.125" fill="url(#paint2_linear_360_1229)"/>
<rect x="7" y="7.875" width="21" height="6.125" fill="url(#paint3_linear_360_1229)"/>
<path d="M7 10.875C7 9.21815 8.34315 7.875 10 7.875H14.5C16.1569 7.875 17.5 9.21815 17.5 10.875V20.625C17.5 22.2819 16.1569 23.625 14.5 23.625H7V10.875Z" fill="black" fill-opacity="0.3"/>
<rect y="6.125" width="15.75" height="15.75" rx="2" fill="url(#paint4_linear_360_1229)"/>
<path d="M13.125 9.63741H11.4208L10.0825 15.3466L8.61846 9.625H7.17729L5.7018 15.3466L4.375 9.63741H2.625L4.90114 18.375H6.41095L7.875 12.852L9.33905 18.375H10.8489L13.125 9.63741Z" fill="white"/>
<defs>
<linearGradient id="paint0_linear_360_1229" x1="7" y1="5.83333" x2="28" y2="5.83333" gradientUnits="userSpaceOnUse">
<stop stop-color="#2B78B1"/>
<stop offset="1" stop-color="#338ACD"/>
</linearGradient>
<linearGradient id="paint1_linear_360_1229" x1="7" y1="23.9531" x2="28" y2="23.9531" gradientUnits="userSpaceOnUse">
<stop stop-color="#1B366F"/>
<stop offset="1" stop-color="#2657B0"/>
</linearGradient>
<linearGradient id="paint2_linear_360_1229" x1="16.1875" y1="17.5" x2="28" y2="17.5" gradientUnits="userSpaceOnUse">
<stop stop-color="#20478B"/>
<stop offset="1" stop-color="#2D6FD1"/>
</linearGradient>
<linearGradient id="paint3_linear_360_1229" x1="16.1875" y1="11.375" x2="28" y2="11.375" gradientUnits="userSpaceOnUse">
<stop stop-color="#215295"/>
<stop offset="1" stop-color="#2E84D3"/>
</linearGradient>
<linearGradient id="paint4_linear_360_1229" x1="2.89745e-08" y1="14.875" x2="16.625" y2="14.875" gradientUnits="userSpaceOnUse">
<stop stop-color="#223E74"/>
<stop offset="1" stop-color="#215091"/>
</linearGradient>
</defs>
</svg>
