<svg width="24" height="24" viewBox="0 0 24 24" fill="none" xmlns="http://www.w3.org/2000/svg">
<path d="M9 14C9.83333 15.1667 12.2 16.8 15 14" stroke="#D2D2D2"/>
<path d="M20 12C20 7.85786 16.1421 4 12 4C7.85786 4 4 7.85786 4 12C4 16.1421 7.85786 20 12 20V21C7.02944 21 3 16.9706 3 12C3 7.02944 7.02944 3 12 3C16.9706 3 21 7.02944 21 12C21 16.9706 16.9706 21 12 21V20C16.1421 20 20 16.1421 20 12Z" fill="#D2D2D2"/>
<mask id="path-3-inside-1_473_1142" fill="white">
<ellipse cx="8.75" cy="10" rx="0.75" ry="1"/>
</mask>
<ellipse cx="8.75" cy="10" rx="0.75" ry="1" fill="#D2D2D2"/>
<path d="M9.5 10H8.5C8.5 10.0807 8.47421 10.1153 8.48033 10.1071C8.4847 10.1013 8.50508 10.0761 8.55071 10.0504C8.59915 10.0231 8.66844 10 8.75 10V11V12C9.34243 12 9.80254 11.6775 10.0803 11.3071C10.3579 10.937 10.5 10.4716 10.5 10H9.5ZM8.75 11V10C8.83156 10 8.90085 10.0231 8.94929 10.0504C8.99492 10.0761 9.0153 10.1013 9.01967 10.1071C9.02579 10.1153 9 10.0807 9 10H8H7C7 10.4716 7.14211 10.937 7.41967 11.3071C7.69746 11.6775 8.15757 12 8.75 12V11ZM8 10H9C9 9.91931 9.02579 9.88474 9.01967 9.89289C9.0153 9.89872 8.99492 9.92388 8.94929 9.94962C8.90085 9.97693 8.83156 10 8.75 10V9V8C8.15757 8 7.69746 8.3225 7.41967 8.69289C7.14211 9.06298 7 9.52841 7 10H8ZM8.75 9V10C8.66844 10 8.59915 9.97693 8.55071 9.94962C8.50508 9.92388 8.4847 9.89872 8.48033 9.89289C8.47421 9.88474 8.5 9.91931 8.5 10H9.5H10.5C10.5 9.52841 10.3579 9.06298 10.0803 8.69289C9.80254 8.3225 9.34243 8 8.75 8V9Z" fill="#D2D2D2" mask="url(#path-3-inside-1_473_1142)"/>
<mask id="path-5-inside-2_473_1142" fill="white">
<ellipse cx="14.75" cy="10" rx="0.75" ry="1"/>
</mask>
<ellipse cx="14.75" cy="10" rx="0.75" ry="1" fill="#D2D2D2"/>
<path d="M15.5 10H14.5C14.5 10.0807 14.4742 10.1153 14.4803 10.1071C14.4847 10.1013 14.5051 10.0761 14.5507 10.0504C14.5991 10.0231 14.6684 10 14.75 10V11V12C15.3424 12 15.8025 11.6775 16.0803 11.3071C16.3579 10.937 16.5 10.4716 16.5 10H15.5ZM14.75 11V10C14.8316 10 14.9009 10.0231 14.9493 10.0504C14.9949 10.0761 15.0153 10.1013 15.0197 10.1071C15.0258 10.1153 15 10.0807 15 10H14H13C13 10.4716 13.1421 10.937 13.4197 11.3071C13.6975 11.6775 14.1576 12 14.75 12V11ZM14 10H15C15 9.91931 15.0258 9.88474 15.0197 9.89289C15.0153 9.89872 14.9949 9.92388 14.9493 9.94962C14.9009 9.97693 14.8316 10 14.75 10V9V8C14.1576 8 13.6975 8.3225 13.4197 8.69289C13.1421 9.06298 13 9.52841 13 10H14ZM14.75 9V10C14.6684 10 14.5991 9.97693 14.5507 9.94962C14.5051 9.92388 14.4847 9.89872 14.4803 9.89289C14.4742 9.88474 14.5 9.91931 14.5 10H15.5H16.5C16.5 9.52841 16.3579 9.06298 16.0803 8.69289C15.8025 8.3225 15.3424 8 14.75 8V9Z" fill="#D2D2D2" mask="url(#path-5-inside-2_473_1142)"/>
<rect x="11.25" y="11.25" width="0.5" height="1.5" fill="#D2D2D2" stroke="#D2D2D2" stroke-width="0.5"/>
</svg>
