<svg width="24" height="24" viewBox="0 0 24 24" fill="none" xmlns="http://www.w3.org/2000/svg">
<g opacity="0.8">
<path d="M13.3516 5.50108C14.005 5.51764 14.6836 5.81724 15.0957 6.44347C15.8065 7.52431 15.5266 8.78171 14.6846 9.64464L16.7031 10.5431L17 10.6749V15.6749C17 16.0701 16.7673 16.4285 16.4062 16.589L12.2031 18.4571L12 18.547L11.7969 18.4571L7.59375 16.589C7.23269 16.4285 7.00002 16.0701 7 15.6749V10.6749L7.29688 10.5431L9.31445 9.64464C8.47281 8.78172 8.19363 7.5241 8.9043 6.44347C9.3164 5.81724 9.99498 5.51764 10.6484 5.50108C11.119 5.48922 11.6065 5.62417 12 5.91612C12.3935 5.62417 12.881 5.48922 13.3516 5.50108ZM8 15.6749L11.5 17.2296V13.3243L8 11.7696V15.6749ZM12.5 13.3243V17.2296L16 15.6749V11.7696L12.5 13.3243ZM12.2891 11.4083C12.1159 11.5309 11.8841 11.5309 11.7109 11.4083L10.209 10.3419L8.73047 10.9991L12 12.4523L15.2686 10.9991L13.79 10.3419L12.2891 11.4083ZM13.3262 6.50011C12.9458 6.49058 12.5986 6.64635 12.4023 6.91124C12.3081 7.03865 12.1585 7.11437 12 7.11437C11.8415 7.11437 11.6919 7.03865 11.5977 6.91124C11.4014 6.64635 11.0542 6.49058 10.6738 6.50011C10.2973 6.50965 9.94529 6.68002 9.73926 6.99327C9.29921 7.66243 9.47339 8.52516 10.2363 9.13487L12 10.3751L13.7627 9.13487C14.5261 8.52514 14.7009 7.66261 14.2607 6.99327C14.0547 6.68002 13.7027 6.50965 13.3262 6.50011Z" fill="white"/>
<rect x="1.5" y="1.5" width="21" height="21" rx="10.5" stroke="white"/>
</g>
</svg>
