<svg width="24" height="24" viewBox="0 0 24 24" fill="none" xmlns="http://www.w3.org/2000/svg">
<path d="M12.0924 4C12.8372 4 13.5578 4.10354 14.2418 4.29395L14.568 4.38477L14.6051 4.7207C14.7148 5.72123 15.5628 6.5 16.5924 6.5C16.8516 6.5 17.1001 6.44821 17.3307 6.35645L17.6442 6.23242L17.8766 6.47559C18.7432 7.38284 19.398 8.49406 19.7633 9.73047L19.8717 10.0967L19.5465 10.2979C18.9731 10.6512 18.5924 11.2811 18.5924 12C18.5924 12.7184 18.973 13.3476 19.5465 13.7012L19.8717 13.9023L19.7633 14.2686C19.4467 15.3407 18.9132 16.3187 18.2115 17.1514L17.943 17.4697L17.5807 17.2637C17.2878 17.0965 16.9517 17 16.5924 17C15.4878 17 14.5924 17.8954 14.5924 19C14.5924 19.0576 14.5956 19.1177 14.6012 19.1807L14.6383 19.5947L14.2369 19.7061C13.5549 19.8955 12.8361 20 12.0924 20C11.3485 20 10.6293 19.8957 9.9469 19.7061L9.54553 19.5947L9.58264 19.1807C9.58871 19.1125 9.59241 19.0541 9.59241 19C9.59241 17.8954 8.69698 17 7.59241 17C7.23248 17 6.8958 17.0965 6.60315 17.2637L6.24084 17.4697L5.97229 17.1514C5.27081 16.3188 4.73708 15.3406 4.42053 14.2686L4.31213 13.9014L4.63733 13.7012C5.21133 13.3475 5.59241 12.7185 5.59241 12C5.59241 11.2812 5.21201 10.6513 4.63831 10.2979L4.31213 10.0977L4.42053 9.73047C4.78575 8.49412 5.44082 7.38277 6.30725 6.47559L6.53967 6.23145L6.85315 6.35645C7.08358 6.44823 7.33257 6.5 7.59241 6.5C8.62169 6.5 9.46901 5.72146 9.57874 4.7207L9.61584 4.38477L9.94202 4.29395C10.6264 4.10334 11.3474 4 12.0924 4Z" stroke="#B8B8B8"/>
</svg>
