<svg width="24" height="24" viewBox="0 0 24 24" fill="none" xmlns="http://www.w3.org/2000/svg">
<path d="M11 5C14.3137 5 17 7.68629 17 11C17 12.3865 16.528 13.6617 15.7383 14.6777L19.0303 17.9697C19.3232 18.2626 19.3232 18.7374 19.0303 19.0303C18.7374 19.3232 18.2626 19.3232 17.9697 19.0303L14.6777 15.7383C13.6617 16.528 12.3865 17 11 17C7.68629 17 5 14.3137 5 11C5 7.68629 7.68629 5 11 5ZM11 6.5C8.51472 6.5 6.5 8.51472 6.5 11C6.5 13.4853 8.51472 15.5 11 15.5C13.4853 15.5 15.5 13.4853 15.5 11C15.5 8.51472 13.4853 6.5 11 6.5Z" fill="white"/>
</svg>
