<svg width="12" height="12" viewBox="0 0 12 12" fill="none" xmlns="http://www.w3.org/2000/svg">
<path d="M8.90089 1H3.09911C2.78715 1 2.55137 1.28252 2.60717 1.58944L3.46632 6.31476C3.48803 6.43416 3.46557 6.55738 3.40313 6.66145L2.45435 8.24275C2.25439 8.57601 2.49445 9 2.8831 9H4.5C4.77614 9 5 9.22386 5 9.5V10.5C5 10.7761 5.22386 11 5.5 11H6.5C6.77614 11 7 10.7761 7 10.5V9.5C7 9.22386 7.22386 9 7.5 9H9.1169C9.50555 9 9.74561 8.57601 9.54565 8.24275L8.59687 6.66145C8.53443 6.55738 8.51197 6.43416 8.53368 6.31476L9.39283 1.58944C9.44863 1.28252 9.21285 1 8.90089 1Z" fill="#838383"/>
</svg>
