<svg width="12" height="12" viewBox="0 0 12 12" fill="none" xmlns="http://www.w3.org/2000/svg">
<path d="M1.17678 9.66213C1.07915 9.5645 1.07915 9.40621 1.17678 9.30857L9.3085 1.17685C9.40614 1.07922 9.56443 1.07922 9.66206 1.17685C9.75969 1.27448 9.75969 1.43277 9.66206 1.5304L1.53033 9.66213C1.4327 9.75976 1.27441 9.75976 1.17678 9.66213Z" fill="#838383"/>
<path d="M4.58106 9.00005V9.50005C4.58106 10.3285 5.25263 11.0001 6.08106 11.0001C6.90948 11 7.58106 10.3285 7.58106 9.50005V9.00005H10.375C10.8203 8.99993 11.0433 8.4615 10.7285 8.14654L9.58106 6.99908V3.66705C9.58106 3.30519 9.49998 2.96015 9.35308 2.64551L3 9.00005H4.58106Z" fill="#838383"/>
<path d="M8.97581 2.2018C8.43935 1.47786 7.51681 1 6.46875 1H5.46875C3.8119 1 2.46875 2.19424 2.46875 3.66699V7.00098L1.32324 8.14648C1.00826 8.46146 1.2313 9 1.67675 9H2.17578L8.97581 2.2018Z" fill="#838383"/>
</svg>
