<svg width="24" height="24" viewBox="0 0 24 24" fill="none" xmlns="http://www.w3.org/2000/svg">
<path d="M11.9655 3.5C15.5553 3.5 18.4655 5.96243 18.4655 9V15.6328L19.071 16.7637C19.2493 17.0967 19.0084 17.5 18.6305 17.5H14.9352C14.7273 19.1962 13.4768 20.5 11.9655 20.5C10.4541 20.5 9.20371 19.1962 8.99576 17.5H5.30045C4.92261 17.5 4.68163 17.0967 4.86002 16.7637L5.46549 15.6328V9C5.46549 5.96243 8.37564 3.5 11.9655 3.5ZM10.0055 17.5C10.2015 18.7387 11.1099 19.5 11.9655 19.5C12.8211 19.5 13.7295 18.7387 13.9254 17.5H10.0055ZM11.9655 4.5C8.76482 4.5 6.46549 6.6648 6.46549 9V15.8838L6.34732 16.1045L6.13541 16.5H17.7956L17.5837 16.1045L17.4655 15.8838V9C17.4655 6.6648 15.1662 4.5 11.9655 4.5Z" fill="#B8B8B8"/>
</svg>
