<svg width="24" height="24" viewBox="0 0 24 24" fill="none" xmlns="http://www.w3.org/2000/svg">
<path d="M10.4492 1.5C13.647 1.50007 16.3742 2.38027 18.3076 4.20508C20.2499 6.03857 21.2617 8.70296 21.2617 12C21.2617 15.297 20.2499 17.9614 18.3076 19.7949C16.3742 21.6197 13.647 22.4999 10.4492 22.5H5.20312C3.54627 22.5 2.20313 21.1569 2.20312 19.5V4.5C2.20313 2.84315 3.54627 1.5 5.20312 1.5H10.4492ZM4.99902 2.51074C3.99035 2.613 3.20313 3.46435 3.20312 4.5V19.5L3.21387 19.7041C3.30934 20.6456 4.05748 21.3938 4.99902 21.4893L5.20312 21.5H10.4492C16.492 21.4999 20.2617 18.1796 20.2617 12C20.2617 5.82045 16.492 2.50014 10.4492 2.5H5.20312L4.99902 2.51074ZM10.2305 6.46484C13.6755 6.46494 15.5859 7.70719 15.5859 12C15.5859 16.2928 13.6755 17.5077 10.2852 17.5078H9.85156L9.64746 17.4971C8.70592 17.4016 7.95778 16.6534 7.8623 15.7119L7.85156 15.5078V8.46484C7.85156 7.36027 8.74699 6.46484 9.85156 6.46484H10.2305ZM9.85156 7.46484C9.29928 7.46484 8.85156 7.91256 8.85156 8.46484V15.5078C8.85156 16.0601 9.29928 16.5078 9.85156 16.5078H10.2852C11.899 16.5078 12.9051 16.211 13.5254 15.6328C14.1319 15.0672 14.5859 14.0262 14.5859 12C14.5859 9.97412 14.1321 8.92608 13.5186 8.35352C12.8911 7.76823 11.8708 7.46489 10.2305 7.46484H9.85156Z" fill="white"/>
</svg>
