<svg width="24" height="24" viewBox="0 0 24 24" fill="none" xmlns="http://www.w3.org/2000/svg">
<path d="M12 3C16.9706 3 21 7.02944 21 12C21 16.9706 16.9706 21 12 21C7.02944 21 3 16.9706 3 12C3 7.02944 7.02944 3 12 3ZM12 4.2002C7.69218 4.2002 4.2002 7.69218 4.2002 12C4.2002 16.3078 7.69218 19.7998 12 19.7998C16.3078 19.7998 19.7998 16.3078 19.7998 12C19.7998 7.69218 16.3078 4.2002 12 4.2002ZM12.4004 11C12.7315 11.0002 12.9998 11.2685 13 11.5996V15.4004C12.9998 15.7315 12.7315 15.9998 12.4004 16H11.5996C11.2685 15.9998 11.0002 15.7315 11 15.4004V11.5996C11.0002 11.2685 11.2685 11.0002 11.5996 11H12.4004ZM12.5 8C12.7761 8 13 8.22386 13 8.5C13 8.77614 12.7761 9 12.5 9H11.5C11.2239 9 11 8.77614 11 8.5C11 8.22386 11.2239 8 11.5 8H12.5Z" fill="white"/>
</svg>
