<svg width="24" height="24" viewBox="0 0 24 24" fill="none" xmlns="http://www.w3.org/2000/svg">
<path d="M12.0681 3.5C12.7605 3.5 13.4336 3.58368 14.0779 3.74023L14.3523 3.8125L15.0037 3.99316L15.0779 4.66602C15.1601 5.41597 15.7966 6 16.5681 6C16.76 6 16.9456 5.96226 17.1208 5.89258L17.7478 5.64258L18.2136 6.13086C19.1342 7.09453 19.8302 8.27465 20.2185 9.58887L20.4353 10.3223L19.7839 10.7236C19.3514 10.9903 19.0681 11.4627 19.0681 12C19.0681 12.5364 19.3511 13.0083 19.7839 13.2754L20.4353 13.6768L20.2185 14.4102C19.882 15.5498 19.3146 16.589 18.5691 17.4736L18.032 18.1104L17.3083 17.6973C17.0876 17.5714 16.8364 17.5 16.5681 17.5C15.7397 17.5 15.0681 18.1716 15.0681 19C15.0681 19.0395 15.0703 19.0839 15.075 19.1357L15.1492 19.9648L14.3464 20.1885C13.6226 20.3895 12.8588 20.5 12.0681 20.5C11.2774 20.5 10.5132 20.3897 9.78882 20.1885L8.98608 19.9648L9.0603 19.1357C9.06584 19.0736 9.06812 19.0325 9.06812 19C9.06812 18.1716 8.39654 17.5 7.56812 17.5C7.2988 17.5 7.04714 17.5715 6.8269 17.6973L6.10327 18.1104L5.56616 17.4736C4.82091 16.5891 4.25323 15.5497 3.91675 14.4102L3.69995 13.6768L4.35132 13.2754C4.78491 13.0082 5.06812 12.5363 5.06812 12C5.06812 11.4629 4.78457 10.9904 4.35132 10.7236L3.69995 10.3223L3.91675 9.58887C4.30491 8.27482 5.00056 7.09434 5.92065 6.13086L6.38745 5.64258L7.0144 5.89258C7.1892 5.96218 7.37514 6 7.56812 6C8.33911 6 8.97509 5.41648 9.05737 4.66602L9.13159 3.99414L9.78296 3.8125C10.5102 3.60995 11.2767 3.5 12.0681 3.5ZM12.0681 4.5C11.3694 4.5 10.6933 4.59664 10.0515 4.77539C9.91434 6.02644 8.8557 7 7.56812 7C7.24147 7 6.93031 6.93522 6.64429 6.82129C5.83169 7.6721 5.21795 8.71358 4.87573 9.87207C5.59029 10.3121 6.06812 11.0992 6.06812 12C6.06812 12.9006 5.59005 13.6869 4.87573 14.127C5.17239 15.1317 5.67298 16.0484 6.33081 16.8291C6.69583 16.6206 7.11764 16.5 7.56812 16.5C8.94883 16.5 10.0681 17.6193 10.0681 19C10.0681 19.0758 10.063 19.1506 10.0564 19.2246C10.6968 19.4025 11.371 19.5 12.0681 19.5C12.7649 19.5 13.4387 19.4024 14.0789 19.2246C14.0723 19.1506 14.0681 19.0757 14.0681 19C14.0681 17.6193 15.1874 16.5 16.5681 16.5C17.0183 16.5 17.4396 16.6209 17.8044 16.8291C18.4624 16.0483 18.9628 15.1318 19.2595 14.127C18.5456 13.6868 18.0681 12.9003 18.0681 12C18.0681 11.0995 18.5454 10.3122 19.2595 9.87207C18.9172 8.71347 18.3037 7.67213 17.491 6.82129C17.2052 6.93501 16.8944 7 16.5681 7C15.2805 7 14.2209 6.02649 14.0837 4.77539C13.4423 4.5968 12.7665 4.5 12.0681 4.5ZM12.0681 8.5C14.0011 8.5 15.5681 10.067 15.5681 12C15.5681 13.933 14.0011 15.5 12.0681 15.5C10.1351 15.5 8.56812 13.933 8.56812 12C8.56812 10.067 10.1351 8.5 12.0681 8.5ZM12.0681 9.5C10.6874 9.5 9.56812 10.6193 9.56812 12C9.56812 13.3807 10.6874 14.5 12.0681 14.5C13.4488 14.5 14.5681 13.3807 14.5681 12C14.5681 10.6193 13.4488 9.5 12.0681 9.5Z" fill="#B8B8B8"/>
</svg>
