<svg width="18" height="18" viewBox="0 0 18 18" fill="none" xmlns="http://www.w3.org/2000/svg">
<rect x="0.5" y="0.5" width="17" height="17" rx="8.5" fill="#FFE707"/>
<rect x="0.5" y="0.5" width="17" height="17" rx="8.5" stroke="#FFE707"/>
<mask id="path-2-inside-1_551_1023" fill="white">
<path d="M4 9L10.364 2.63604L13.8995 6.17157L7.53553 12.5355L4 9Z"/>
</mask>
<path d="M7.53553 12.5355L6.68701 13.3841L7.53553 14.2326L8.38406 13.3841L7.53553 12.5355ZM13.8995 6.17157L13.051 5.32304L6.68701 11.687L7.53553 12.5355L8.38406 13.3841L14.748 7.0201L13.8995 6.17157ZM7.53553 12.5355L8.38406 11.687L4.84853 8.15147L4 9L3.15147 9.84853L6.68701 13.3841L7.53553 12.5355Z" fill="#262626" mask="url(#path-2-inside-1_551_1023)"/>
</svg>
