<svg width="30" height="30" viewBox="0 0 30 30" fill="none" xmlns="http://www.w3.org/2000/svg">
<path d="M13.0595 0.281415C13.982 -0.0937674 15.0186 -0.0938424 15.9411 0.281415L24.6755 3.36288C26.0825 3.93526 27 5.28413 27 6.77992V17.8743C27 19.4978 26.2759 21.8744 25.0187 22.9283L18.1664 28.6723C16.0544 30.4425 12.9456 30.4426 10.8336 28.6723L3.98134 22.9283C2.72414 21.8744 2 19.4977 2 17.8743V6.77992C2 5.28413 2.91748 3.93526 4.32454 3.36288L13.0595 0.281415Z" fill="#215AE1"/>
<path d="M14.5 8C18.6421 8 22 10.8657 22 14.4007C22 17.9356 18.6421 20.8013 14.5 20.8013C13.8655 20.8013 13.2494 20.7335 12.661 20.6069L10.1927 22.9247C10.0209 23.0857 9.72727 22.9714 9.72727 22.7434V19.338C8.06166 18.1641 7 16.3882 7 14.4007C7 10.8657 10.3579 8 14.5 8Z" fill="#FEE307"/>
</svg>
