<svg width="48" height="48" viewBox="0 0 48 48" fill="none" xmlns="http://www.w3.org/2000/svg">
<path d="M21.6132 0.450263C23.0892 -0.150028 24.7478 -0.150148 26.2238 0.450263L40.1987 5.3806C42.45 6.29641 43.918 8.45461 43.918 10.8479V28.599C43.918 31.1965 42.7594 34.999 40.7478 36.6853L29.7842 45.8758C26.4049 48.708 21.4309 48.7081 18.0518 45.8758L7.08812 36.6853C5.07659 34.999 3.91797 31.1964 3.91797 28.599V10.8479C3.91797 8.45461 5.38594 6.29641 7.63723 5.3806L21.6132 0.450263Z" fill="#215AE1"/>
<path d="M24 13C30.0751 13 35 17.394 35 22.8143C35 28.2347 30.0751 32.6287 24 32.6287C23.0693 32.6287 22.1658 32.5248 21.3027 32.3306L17.6826 35.8845C17.4306 36.1315 17 35.9562 17 35.6065V30.385C14.5571 28.5849 13 25.862 13 22.8143C13 17.394 17.9249 13 24 13Z" fill="#FEE307"/>
</svg>
